<svg width="876" height="235" viewBox="0 0 876 235" fill="none" xmlns="http://www.w3.org/2000/svg">
<path d="M177.28 62.74C191.98 77.23 199.96 96.76 199.96 117.34C199.96 138.13 191.98 157.45 177.28 172.15C162.16 187.06 142.42 194.62 122.68 194.62C102.73 194.62 82.99 187.06 67.87 172.15C37.84 141.91 37.84 92.77 67.87 62.74C98.11 32.5 147.04 32.5 177.28 62.74ZM170.77 165.64C183.58 152.62 190.72 135.61 190.72 117.34C190.72 99.28 183.58 82.06 170.77 69.25C157.54 56.02 140.11 49.3 122.68 49.3C105.25 49.3 87.82 56.02 74.38 69.25C47.92 95.71 47.92 138.97 74.38 165.64C101.05 192.1 144.31 192.1 170.77 165.64ZM260.589 117.34L320.019 187.06C321.699 188.95 321.489 191.89 319.599 193.57C318.759 194.41 317.709 194.62 316.659 194.62C315.399 194.62 313.929 194.2 313.089 193.15L188.979 47.62C187.299 45.73 187.509 42.79 189.399 41.11C191.289 39.43 194.229 39.64 195.909 41.74L254.499 110.2L313.089 41.74C314.769 39.64 317.709 39.43 319.599 41.11C321.489 42.79 321.699 45.73 320.019 47.62L260.589 117.34ZM240.639 134.77L285.369 187.06C286.839 188.95 286.629 191.89 284.739 193.57C283.899 194.41 282.849 194.62 281.799 194.62C280.539 194.62 279.069 194.2 278.229 193.15L237.069 144.85L195.909 193.15C195.069 194.2 193.809 194.83 192.549 194.83C191.289 194.83 190.239 194.41 189.399 193.57C187.509 191.89 187.299 188.95 188.979 187.06L233.499 134.77C233.709 134.77 233.709 134.56 233.919 134.56C233.919 134.35 233.919 134.35 234.129 134.35C234.129 134.14 234.129 134.14 234.129 134.14C234.339 134.14 234.549 133.93 234.549 133.93C234.759 133.93 234.759 133.72 234.969 133.72C235.179 133.72 235.179 133.51 235.389 133.51C235.599 133.51 235.599 133.3 235.809 133.3C236.019 133.3 236.019 133.3 236.229 133.3C236.439 133.3 236.439 133.09 236.649 133.09C236.859 133.09 236.859 133.09 237.069 133.09C237.279 133.09 237.489 133.09 237.489 133.09C237.699 133.3 237.909 133.3 237.909 133.3C238.119 133.3 238.329 133.3 238.329 133.3C238.539 133.3 238.749 133.51 238.749 133.51C238.959 133.51 239.169 133.72 239.169 133.72C239.379 133.72 239.379 133.93 239.589 133.93C239.799 133.93 239.799 134.14 240.009 134.14C240.009 134.14 240.009 134.14 240.009 134.35C240.219 134.35 240.219 134.35 240.429 134.56C240.429 134.56 240.429 134.77 240.639 134.77ZM436.363 124.69C451.483 129.31 461.563 143.17 461.563 158.92C461.563 178.66 445.393 194.62 425.653 194.62H363.493C343.753 194.62 327.793 178.66 327.793 158.92C327.793 156.4 329.683 154.3 332.203 154.3C334.933 154.3 336.823 156.4 336.823 158.92C336.823 173.62 348.793 185.59 363.493 185.59H425.653C440.353 185.59 452.323 173.62 452.323 158.92C452.323 147.16 444.763 136.87 433.633 133.51L352.993 110.2C337.873 105.37 327.793 91.72 327.793 75.97C327.793 56.02 343.753 40.06 363.493 40.06H425.653C445.393 40.06 461.563 56.02 461.563 75.97C461.563 78.49 459.463 80.59 456.943 80.59C454.423 80.59 452.323 78.49 452.323 75.97C452.323 61.27 440.353 49.3 425.653 49.3H363.493C348.793 49.3 336.823 61.27 336.823 75.97C336.823 87.52 344.383 97.81 355.513 101.38L436.363 124.69ZM599.736 41.11C601.626 42.79 601.836 45.73 600.156 47.62L539.256 119.02V190C539.256 192.73 537.156 194.62 534.636 194.62C532.116 194.62 530.016 192.73 530.016 190V119.02L469.116 47.62C467.436 45.73 467.646 42.79 469.536 41.11C471.426 39.43 474.366 39.64 476.046 41.74L534.636 110.2L593.226 41.74C594.906 39.64 597.846 39.43 599.736 41.11ZM716.499 124.69C731.619 129.31 741.699 143.17 741.699 158.92C741.699 178.66 725.529 194.62 705.789 194.62H643.629C623.889 194.62 607.929 178.66 607.929 158.92C607.929 156.4 609.819 154.3 612.339 154.3C615.069 154.3 616.959 156.4 616.959 158.92C616.959 173.62 628.929 185.59 643.629 185.59H705.789C720.489 185.59 732.459 173.62 732.459 158.92C732.459 147.16 724.899 136.87 713.769 133.51L633.129 110.2C618.009 105.37 607.929 91.72 607.929 75.97C607.929 56.02 623.889 40.06 643.629 40.06H705.789C725.529 40.06 741.699 56.02 741.699 75.97C741.699 78.49 739.599 80.59 737.079 80.59C734.559 80.59 732.459 78.49 732.459 75.97C732.459 61.27 720.489 49.3 705.789 49.3H643.629C628.929 49.3 616.959 61.27 616.959 75.97C616.959 87.52 624.519 97.81 635.649 101.38L716.499 124.69Z" fill="white"/>
<path d="M782.12 46V23.28H773.16V18H797.56V23.28H788.6V46H782.12ZM801.047 46V18H806.407L818.327 37.76H815.487L827.207 18H832.527L832.607 46H826.527L826.487 27.32H827.607L818.247 43.04H815.327L805.767 27.32H807.127V46H801.047Z" fill="white"/>
</svg>
